<?xml version="1.0" standalone="no"?>
<!DOCTYPE svg PUBLIC "-//W3C//DTD SVG 20010904//EN" "http://www.w3.org/TR/2001/REC-SVG-20010904/DTD/svg10.dtd">
<!--
SPDX-FileCopyrightText: Stone Tickle <lattis@mochiro.moe>
SPDX-License-Identifier: GPL-3.0-only
-->
<svg xmlns="http://www.w3.org/2000/svg"
    xmlns:xlink="http://www.w3.org/1999/xlink"
    xmlns:krita="http://krita.org/namespaces/svg/krita"
    xmlns:sodipodi="http://sodipodi.sourceforge.net/DTD/sodipodi-0.dtd"
    width="491.52pt"
    height="491.52pt"
    viewBox="0 0 491.52 491.52">
<defs/>
<path id="shape0" fill="#49bf66" fill-rule="evenodd" stroke="#000000" stroke-opacity="0" stroke-width="0" stroke-linecap="square" stroke-linejoin="bevel" d="M488.057 3.64173L487.26 25.6042L486.477 46.8698L485.696 67.4501L484.906 87.3569L484.096 106.602L483.252 125.196L482.365 143.152L481.421 160.481L480.411 177.194L479.321 193.303L478.141 208.82L476.858 223.757L475.462 238.125L473.94 251.935L472.281 265.2L470.474 277.931L468.506 290.139L466.366 301.837L464.043 313.035L461.524 323.746L458.799 333.981L455.855 343.752L452.682 353.07L449.266 361.947L445.598 370.395L441.664 378.425L437.454 386.049L432.956 393.279L428.159 400.126L423.049 406.601L417.617 412.717L411.851 418.485L405.738 423.917L399.267 429.024L392.427 433.818L385.206 438.31L377.592 442.513L369.574 446.437L361.14 450.095L352.279 453.498L342.978 456.658L333.227 459.587L323.013 462.295L312.326 464.795L301.152 467.098L289.482 469.216L277.303 471.16L264.603 472.943L251.371 474.575L237.596 476.069L223.265 477.436L208.367 478.687L192.891 479.835L176.824 480.891L160.156 481.866L142.875 482.772L124.968 483.621L106.425 484.425L87.2334 485.195L67.382 485.942L46.8593 486.679L25.6534 487.417L3.7528 488.167L4.44521 466.2L5.13061 444.93L5.82046 424.345L6.52619 404.433L7.25923 385.183L8.03104 366.583L8.85306 348.622L9.73672 331.288L10.6935 314.569L11.7348 298.454L12.872 282.931L14.1167 267.989L15.4802 253.616L16.974 239.8L18.6096 226.529L20.3983 213.793L22.3517 201.579L24.4811 189.876L26.798 178.673L29.3139 167.957L32.0401 157.716L34.9882 147.941L38.1696 138.618L41.5957 129.736L45.2779 121.284L49.2277 113.25L53.4566 105.622L57.9759 98.3884L62.7972 91.5383L67.9318 85.0596L73.3913 78.9408L79.187 73.1702L85.3303 67.7363L91.8328 62.6274L98.7059 57.8318L105.961 53.3381L113.61 49.1345L121.663 45.2095L130.133 41.5514L139.03 38.1487L148.367 34.9897L158.155 32.0627L168.404 29.3563L179.127 26.8587L190.335 24.5584L202.04 22.4437L214.252 20.503L226.984 18.7247L240.246 17.0973L254.051 15.609L268.409 14.2483L283.333 13.0035L298.832 11.863L314.92 10.8153L331.608 9.8487L348.906 8.95157L366.826 8.11231L385.38 7.31932L404.579 6.56097L424.435 5.82565L444.959 5.10175L466.163 4.37765L488.057 3.64173M93.5434 108.579L101.581 102.24L109.84 97.0746L118.3 93.0376L126.938 90.0841L135.733 88.1692L144.664 87.2481L153.71 87.2759L162.848 88.2077L172.058 89.9987L181.318 92.6041L190.606 95.9789L199.902 100.078L209.183 104.857L218.428 110.271L227.616 116.275L236.726 122.825L245.735 129.874L254.623 137.379L263.368 145.294L271.948 153.575L280.342 162.177L288.529 171.055L296.487 180.164L304.195 189.459L311.631 198.896L318.774 208.429L325.602 218.014L332.094 227.605L338.229 237.159L343.985 246.629L345.637 249.512L346.491 246.951L347.564 243.502L348.6 239.943L349.599 236.284L350.563 232.536L351.491 228.707L352.384 224.81L353.243 220.853L354.067 216.846L354.858 212.801L355.616 208.727L356.341 204.634L357.035 200.533L357.696 196.433L358.326 192.345L358.926 188.279L359.495 184.246L360.035 180.254L360.545 176.315L361.026 172.439L361.479 168.635L361.904 164.914L362.301 161.286L362.671 157.762L363.015 154.35L363.333 151.063L363.625 147.909L363.892 144.899L364.135 142.043L364.353 139.351L364.548 136.833L364.719 134.5L364.867 132.362L364.994 130.428L365.098 128.71L365.181 127.216L365.243 125.958L365.285 124.945L365.306 124.188L365.308 123.696L365.292 123.481L365.352 123.622L365.542 124.072L365.855 124.824L366.287 125.867L366.831 127.193L367.482 128.794L368.234 130.659L369.081 132.781L370.018 135.15L371.04 137.758L372.14 140.595L373.313 143.652L374.554 146.921L375.856 150.393L377.215 154.058L378.623 157.908L380.077 161.935L381.57 166.128L383.096 170.479L384.651 174.979L386.227 179.62L387.821 184.392L389.425 189.286L391.035 194.293L392.644 199.406L394.248 204.613L395.84 209.908L397.415 215.28L398.967 220.721L400.491 226.222L401.981 231.773L403.431 237.367L404.836 242.994L406.189 248.645L407.487 254.312L408.722 259.985L409.889 265.655L410.983 271.313L411.998 276.952L412.928 282.561L413.767 288.131L414.511 293.655L415.153 299.122L415.688 304.524L416.109 309.853L416.413 315.098L416.592 320.252L416.641 325.305L416.555 330.248L416.328 335.073L415.954 339.77L415.428 344.33L414.744 348.746L413.896 353.007L412.88 357.105L411.688 361.03L410.316 364.775L408.757 368.33L407.007 371.686L405.06 374.834L402.909 377.765L400.55 380.47L397.977 382.941L389.939 389.28L381.68 394.445L373.22 398.482L364.582 401.436L355.787 403.351L346.856 404.272L337.81 404.244L328.672 403.312L319.462 401.521L310.202 398.916L300.914 395.541L291.618 391.442L282.337 386.663L273.092 381.249L263.904 375.245L254.794 368.695L245.785 361.646L236.897 354.141L228.153 346.226L219.572 337.945L211.178 329.343L202.991 320.465L195.033 311.356L187.325 302.061L179.889 292.624L172.746 283.091L165.918 273.506L159.426 263.915L153.291 254.361L147.535 244.891L145.883 242.008L145.029 244.569L143.956 248.018L142.92 251.577L141.921 255.235L140.957 258.984L140.029 262.812L139.136 266.71L138.278 270.667L137.453 274.674L136.662 278.719L135.904 282.793L135.179 286.886L134.485 290.987L133.824 295.087L133.194 299.174L132.594 303.24L132.025 307.274L131.485 311.266L130.975 315.205L130.494 319.081L130.041 322.885L129.617 326.606L129.219 330.234L128.849 333.758L128.505 337.169L128.187 340.457L127.895 343.611L127.628 346.621L127.385 349.477L127.167 352.169L126.972 354.687L126.801 357.02L126.653 359.158L126.526 361.092L126.422 362.81L126.339 364.304L126.277 365.562L126.235 366.575L126.214 367.332L126.212 367.824L126.228 368.039L126.168 367.898L125.978 367.448L125.665 366.696L125.233 365.653L124.689 364.327L124.038 362.726L123.286 360.861L122.439 358.739L121.501 356.37L120.48 353.762L119.38 350.926L118.206 347.868L116.966 344.599L115.664 341.128L114.305 337.462L112.896 333.612L111.443 329.586L109.95 325.393L108.423 321.041L106.869 316.541L105.293 311.901L103.699 307.129L102.095 302.235L100.485 297.227L98.8757 292.115L97.2721 286.907L95.68 281.613L94.105 276.241L92.5528 270.8L91.029 265.299L89.5393 259.747L88.0892 254.153L86.6844 248.526L85.3305 242.875L84.0332 237.209L82.7981 231.536L81.6308 225.866L80.537 220.207L79.5223 214.568L78.5923 208.96L77.7527 203.389L77.0091 197.865L76.3671 192.398L75.8323 186.996L75.4105 181.667L75.1072 176.422L74.928 171.268L74.8786 166.215L74.9647 161.272L75.1918 156.447L75.5656 151.75L76.0917 147.19L76.7758 142.774L77.6235 138.513L78.6404 134.415L79.8321 130.49L81.2043 126.745L82.7627 123.19L84.5128 119.834L86.4603 116.686L88.6108 113.755L90.9699 111.05L93.5434 108.579"/>
</svg>
